<mxfile host="65bd71144e">
    <diagram name="Page-1" id="efa7a0a1-bf9b-a30e-e6df-94a7791c09e9">
        <mxGraphModel dx="837" dy="739" grid="1" gridSize="10" guides="1" tooltips="1" connect="1" arrows="1" fold="1" page="1" pageScale="1" pageWidth="826" pageHeight="1169" background="none" math="0" shadow="0">
            <root>
                <mxCell id="0"/>
                <mxCell id="1" parent="0"/>
                <mxCell id="87" value="" style="rounded=0;whiteSpace=wrap;html=1;fillColor=#FFFFFF;" vertex="1" parent="1">
                    <mxGeometry x="70" y="20" width="690" height="310" as="geometry"/>
                </mxCell>
                <mxCell id="22" value="&lt;p style=&quot;margin: 0px ; margin-top: 4px ; text-align: center ; text-decoration: underline&quot;&gt;&lt;strong&gt;&lt;font color=&quot;#000000&quot;&gt;User&lt;/font&gt;&lt;/strong&gt;&lt;/p&gt;&lt;hr&gt;&lt;p style=&quot;margin: 0px ; margin-left: 8px&quot;&gt;&lt;font color=&quot;#000000&quot;&gt;Username&lt;/font&gt;&lt;/p&gt;&lt;p style=&quot;margin: 0px ; margin-left: 8px&quot;&gt;&lt;font color=&quot;#000000&quot;&gt;Name&lt;/font&gt;&lt;/p&gt;&lt;p style=&quot;margin: 0px ; margin-left: 8px&quot;&gt;&lt;font color=&quot;#000000&quot;&gt;Role&lt;/font&gt;&lt;/p&gt;&lt;p style=&quot;margin: 0px ; margin-left: 8px&quot;&gt;&lt;font color=&quot;#000000&quot;&gt;Email&lt;/font&gt;&lt;br&gt;&lt;/p&gt;" style="verticalAlign=top;align=left;overflow=fill;fontSize=12;fontFamily=Helvetica;html=1;strokeColor=#666666;shadow=1;fillColor=#f5f5f5;spacingTop=2;spacingLeft=2;spacingBottom=2;spacingRight=2;rounded=1;gradientColor=#b3b3b3;" parent="1" vertex="1">
                    <mxGeometry x="330" y="210" width="160" height="95" as="geometry"/>
                </mxCell>
                <mxCell id="27" value="&lt;p style=&quot;margin: 4px 0px 0px ; text-decoration: underline&quot; align=&quot;center&quot;&gt;&lt;strong&gt;&lt;font color=&quot;#000000&quot;&gt;Review&lt;/font&gt;&lt;/strong&gt;&lt;/p&gt;&lt;hr align=&quot;left&quot;&gt;&lt;div align=&quot;left&quot;&gt;&lt;p style=&quot;margin: 0px ; margin-left: 8px&quot;&gt;&lt;font color=&quot;#000000&quot;&gt;Title&lt;br&gt;&lt;/font&gt;&lt;/p&gt;&lt;p style=&quot;margin: 0px ; margin-left: 8px&quot;&gt;&lt;font color=&quot;#000000&quot;&gt;Description&lt;br&gt;&lt;/font&gt;&lt;/p&gt;&lt;p style=&quot;margin: 0px ; margin-left: 8px&quot;&gt;&lt;font color=&quot;#000000&quot;&gt;Rating&lt;/font&gt;&lt;/p&gt;&lt;/div&gt;" style="verticalAlign=top;align=left;overflow=fill;fontSize=12;fontFamily=Helvetica;html=1;strokeColor=#666666;shadow=1;fillColor=#f5f5f5;spacingTop=2;spacingLeft=2;spacingBottom=2;spacingRight=2;rounded=1;gradientColor=#b3b3b3;" parent="1" vertex="1">
                    <mxGeometry x="90" y="217.5" width="160" height="80" as="geometry"/>
                </mxCell>
                <mxCell id="30" value="&lt;p style=&quot;margin: 0px ; margin-top: 4px ; text-align: center ; text-decoration: underline&quot;&gt;&lt;strong&gt;&lt;font color=&quot;#000000&quot;&gt;Room&lt;/font&gt;&lt;/strong&gt;&lt;/p&gt;&lt;hr&gt;&lt;div&gt;&lt;p style=&quot;margin: 0px ; margin-left: 8px&quot;&gt;&lt;font color=&quot;#000000&quot;&gt;Title&lt;br&gt;&lt;/font&gt;&lt;/p&gt;&lt;p style=&quot;margin: 0px ; margin-left: 8px&quot;&gt;&lt;font color=&quot;#000000&quot;&gt;Description&lt;br&gt;&lt;/font&gt;&lt;/p&gt;&lt;p style=&quot;margin: 0px ; margin-left: 8px&quot;&gt;&lt;font color=&quot;#000000&quot;&gt;Link&lt;/font&gt;&lt;br&gt;&lt;/p&gt;&lt;/div&gt;" style="verticalAlign=top;align=left;overflow=fill;fontSize=12;fontFamily=Helvetica;html=1;strokeColor=#666666;shadow=1;fillColor=#f5f5f5;spacingTop=2;spacingLeft=2;spacingBottom=2;spacingRight=2;rounded=1;gradientColor=#b3b3b3;glass=0;" parent="1" vertex="1">
                    <mxGeometry x="576.18" y="215" width="160" height="85" as="geometry"/>
                </mxCell>
                <mxCell id="35" value="&lt;p style=&quot;margin: 0px ; margin-top: 4px ; text-align: center ; text-decoration: underline&quot;&gt;&lt;strong&gt;&lt;font color=&quot;#000000&quot;&gt;Shop&lt;/font&gt;&lt;/strong&gt;&lt;/p&gt;&lt;hr&gt;&lt;div&gt;&lt;p style=&quot;margin: 0px ; margin-left: 8px&quot;&gt;&lt;font color=&quot;#000000&quot;&gt;Name&lt;br&gt;&lt;/font&gt;&lt;/p&gt;&lt;p style=&quot;margin: 0px ; margin-left: 8px&quot;&gt;&lt;font color=&quot;#000000&quot;&gt;Description&lt;br&gt;&lt;/font&gt;&lt;/p&gt;&lt;p style=&quot;margin: 0px ; margin-left: 8px&quot;&gt;&lt;font color=&quot;#000000&quot;&gt;Website&lt;/font&gt;&lt;br&gt;&lt;/p&gt;&lt;/div&gt;" style="verticalAlign=top;align=left;overflow=fill;fontSize=12;fontFamily=Helvetica;html=1;strokeColor=#666666;shadow=1;fillColor=#f5f5f5;spacingTop=2;spacingLeft=5;spacingBottom=2;spacingRight=2;rounded=1;gradientColor=#b3b3b3;" parent="1" vertex="1">
                    <mxGeometry x="330" y="40" width="160" height="80" as="geometry"/>
                </mxCell>
                <mxCell id="57" value="" style="endArrow=ERone;endSize=12;startArrow=ERzeroToOne;startSize=14;startFill=0;edgeStyle=orthogonalEdgeStyle;spacingTop=2;spacingLeft=2;spacingBottom=2;spacingRight=2;exitX=0.5;exitY=1;exitDx=0;exitDy=0;entryX=0.5;entryY=0;entryDx=0;entryDy=0;endFill=0;rounded=1;strokeColor=#000000;" parent="1" source="35" target="22" edge="1">
                    <mxGeometry x="719.3599999999999" y="130" as="geometry">
                        <mxPoint x="750" y="480" as="sourcePoint"/>
                        <mxPoint x="700" y="630" as="targetPoint"/>
                    </mxGeometry>
                </mxCell>
                <mxCell id="58" value="0..1" style="resizable=0;align=left;verticalAlign=top;labelBackgroundColor=#ffffff;fontSize=10;strokeColor=#003366;shadow=1;fillColor=#D4E1F5;fontColor=#003366;spacingTop=2;spacingLeft=2;spacingBottom=2;spacingRight=2;rounded=1;" parent="57" connectable="0" vertex="1">
                    <mxGeometry x="-1" relative="1" as="geometry">
                        <mxPoint x="10" y="10" as="offset"/>
                    </mxGeometry>
                </mxCell>
                <mxCell id="59" value="1" style="resizable=0;align=right;verticalAlign=top;labelBackgroundColor=#ffffff;fontSize=10;strokeColor=#003366;shadow=1;fillColor=#D4E1F5;fontColor=#003366;spacingTop=2;spacingLeft=2;spacingBottom=2;spacingRight=2;rounded=1;" parent="57" connectable="0" vertex="1">
                    <mxGeometry x="1" relative="1" as="geometry">
                        <mxPoint x="30" y="-31" as="offset"/>
                    </mxGeometry>
                </mxCell>
                <mxCell id="84" value="" style="endArrow=ERone;endSize=12;startArrow=ERzeroToMany;startSize=14;startFill=0;edgeStyle=orthogonalEdgeStyle;spacingTop=2;spacingLeft=2;spacingBottom=2;spacingRight=2;entryX=0;entryY=0.5;entryDx=0;entryDy=0;exitX=1;exitY=0.5;exitDx=0;exitDy=0;endFill=0;rounded=1;strokeColor=#000000;" parent="1" source="27" target="22" edge="1">
                    <mxGeometry x="839.3599999999999" y="80" as="geometry">
                        <mxPoint x="270" y="370" as="sourcePoint"/>
                        <mxPoint x="490" y="420" as="targetPoint"/>
                    </mxGeometry>
                </mxCell>
                <mxCell id="85" value="0..n" style="resizable=0;align=left;verticalAlign=top;labelBackgroundColor=#ffffff;fontSize=10;strokeColor=#003366;shadow=1;fillColor=#D4E1F5;fontColor=#003366;spacingTop=2;spacingLeft=2;spacingBottom=2;spacingRight=2;rounded=1;" parent="84" connectable="0" vertex="1">
                    <mxGeometry x="-1" relative="1" as="geometry">
                        <mxPoint x="10" y="3" as="offset"/>
                    </mxGeometry>
                </mxCell>
                <mxCell id="86" value="1" style="resizable=0;align=right;verticalAlign=top;labelBackgroundColor=#ffffff;fontSize=10;strokeColor=#003366;shadow=1;fillColor=#D4E1F5;fontColor=#003366;spacingTop=2;spacingLeft=2;spacingBottom=2;spacingRight=2;direction=south;rounded=1;" parent="84" connectable="0" vertex="1">
                    <mxGeometry x="1" relative="1" as="geometry">
                        <mxPoint x="-9" y="3" as="offset"/>
                    </mxGeometry>
                </mxCell>
                <mxCell id="DJTY-E1UatT_blveEKm3-118" value="" style="endArrow=ERone;endSize=12;startArrow=ERzeroToMany;startSize=14;startFill=0;edgeStyle=orthogonalEdgeStyle;spacingTop=2;spacingLeft=2;spacingBottom=2;spacingRight=2;entryX=0;entryY=0.5;entryDx=0;entryDy=0;exitX=0.5;exitY=0;exitDx=0;exitDy=0;endFill=0;rounded=1;strokeColor=#000000;" parent="1" source="27" target="35" edge="1">
                    <mxGeometry x="849.3599999999999" y="90" as="geometry">
                        <mxPoint x="230.00000000000045" y="267.5" as="sourcePoint"/>
                        <mxPoint x="339.99999999999955" y="267.5" as="targetPoint"/>
                    </mxGeometry>
                </mxCell>
                <mxCell id="DJTY-E1UatT_blveEKm3-119" value="0..n" style="resizable=0;align=left;verticalAlign=top;labelBackgroundColor=#ffffff;fontSize=10;strokeColor=#003366;shadow=1;fillColor=#D4E1F5;fontColor=#003366;spacingTop=2;spacingLeft=2;spacingBottom=2;spacingRight=2;rounded=1;" parent="DJTY-E1UatT_blveEKm3-118" connectable="0" vertex="1">
                    <mxGeometry x="-1" relative="1" as="geometry">
                        <mxPoint x="10" y="-27" as="offset"/>
                    </mxGeometry>
                </mxCell>
                <mxCell id="DJTY-E1UatT_blveEKm3-120" value="1" style="resizable=0;align=right;verticalAlign=top;labelBackgroundColor=#ffffff;fontSize=10;strokeColor=#003366;shadow=1;fillColor=#D4E1F5;fontColor=#003366;spacingTop=2;spacingLeft=2;spacingBottom=2;spacingRight=2;direction=south;rounded=1;" parent="DJTY-E1UatT_blveEKm3-118" connectable="0" vertex="1">
                    <mxGeometry x="1" relative="1" as="geometry">
                        <mxPoint x="-9" y="3" as="offset"/>
                    </mxGeometry>
                </mxCell>
                <mxCell id="DJTY-E1UatT_blveEKm3-121" value="" style="endArrow=ERzeroToMany;endSize=12;startArrow=ERoneToMany;startSize=14;startFill=0;edgeStyle=orthogonalEdgeStyle;spacingTop=2;spacingLeft=2;spacingBottom=2;spacingRight=2;exitX=1;exitY=0.5;exitDx=0;exitDy=0;endFill=0;entryX=0;entryY=0.5;entryDx=0;entryDy=0;rounded=1;strokeColor=#000000;" parent="1" source="22" target="30" edge="1">
                    <mxGeometry x="1119.36" y="202.5" as="geometry">
                        <mxPoint x="530.0000000000005" y="380" as="sourcePoint"/>
                        <mxPoint x="920" y="350" as="targetPoint"/>
                    </mxGeometry>
                </mxCell>
                <mxCell id="DJTY-E1UatT_blveEKm3-122" value="1..n" style="resizable=0;align=left;verticalAlign=top;labelBackgroundColor=#ffffff;fontSize=10;strokeColor=#003366;shadow=1;fillColor=#D4E1F5;fontColor=#003366;spacingTop=2;spacingLeft=2;spacingBottom=2;spacingRight=2;rounded=1;" parent="DJTY-E1UatT_blveEKm3-121" connectable="0" vertex="1">
                    <mxGeometry x="-1" relative="1" as="geometry">
                        <mxPoint x="10" y="3" as="offset"/>
                    </mxGeometry>
                </mxCell>
                <mxCell id="DJTY-E1UatT_blveEKm3-123" value="0..n" style="resizable=0;align=right;verticalAlign=top;labelBackgroundColor=#ffffff;fontSize=10;strokeColor=#003366;shadow=1;fillColor=#D4E1F5;fontColor=#003366;spacingTop=2;spacingLeft=2;spacingBottom=2;spacingRight=2;direction=south;rounded=1;" parent="DJTY-E1UatT_blveEKm3-121" connectable="0" vertex="1">
                    <mxGeometry x="1" relative="1" as="geometry">
                        <mxPoint x="-9" y="3" as="offset"/>
                    </mxGeometry>
                </mxCell>
            </root>
        </mxGraphModel>
    </diagram>
</mxfile>